<svg version="1.1" xmlns="http://www.w3.org/2000/svg" style="display: block;" viewBox="0 0 2048 2048" width="1024" height="1024">
<path transform="translate(0,0)" fill="rgb(39,45,57)" d="M 0 0 L 2048 0 L 2048 2048 L 0 2048 L 0 0 z"/>
<path transform="translate(0,0)" fill="rgb(158,232,213)" d="M 1874.92 265.667 C 1879.58 266.758 1884.11 268.27 1888.66 269.712 A 131.537 131.537 0 0 1 1886.6 274.436 C 1878.89 291.296 1865.77 302.351 1848.5 308.638 C 1844.92 309.324 1839.8 310.769 1836.32 309.369 L 1836.63 308.866 C 1853.64 299.691 1869.28 284.511 1874.92 265.667 z"/>
<path transform="translate(0,0)" fill="rgb(158,232,213)" d="M 1817.6 187.491 C 1825.88 186.56 1833.74 186.213 1841.95 187.939 A 61.9841 61.9841 0 0 1 1881.57 215.065 C 1892.22 231.389 1893.61 248.71 1889.56 267.369 C 1886.31 267.87 1879.32 264.785 1876.02 263.745 C 1877.91 252.271 1877.47 240.737 1873.38 229.769 C 1863.47 203.209 1840.67 197.933 1817.6 187.491 z"/>
<path transform="translate(0,0)" fill="rgb(158,232,213)" d="M 156.232 660.135 C 160.637 659.965 165.148 659.884 169.279 661.637 A 21.1659 21.1659 0 0 1 180.852 673.925 C 182.871 679.544 182.597 686.009 179.885 691.359 C 176.533 697.969 171.217 700.83 164.443 703.029 C 160.873 703.197 157.427 703.268 153.984 702.149 A 21.7026 21.7026 0 0 1 140.878 690.645 A 21.156 21.156 0 0 1 140.794 673.501 C 143.901 666.361 149.27 662.95 156.232 660.135 z"/>
<path transform="translate(0,0)" fill="rgb(158,232,213)" d="M 903.548 1624.19 C 908.011 1624.39 912.502 1624.95 916.436 1627.2 A 20.7975 20.7975 0 0 1 926.563 1640.81 A 22.6822 22.6822 0 0 1 923.313 1658.32 C 919.139 1664.61 913.58 1667.09 906.457 1668.74 C 902.571 1668.87 898.256 1668.21 894.743 1666.51 A 20.8413 20.8413 0 0 1 883.822 1653.46 A 22.439 22.439 0 0 1 885.864 1635.9 C 889.883 1628.98 896.072 1626.09 903.548 1624.19 z"/>
<path transform="translate(0,0)" fill="rgb(158,232,213)" d="M 1787.42 970.08 C 1792.56 969.696 1797.4 969.548 1802.13 971.943 A 23.8908 23.8908 0 0 1 1814.13 985.814 C 1815.99 991.5 1815.7 998.033 1812.93 1003.39 C 1809.57 1009.88 1804.31 1012.77 1797.59 1014.9 C 1793.73 1015.01 1789.41 1015.38 1785.74 1013.97 C 1779.51 1011.57 1774.3 1006.74 1771.8 1000.51 C 1769.5 994.778 1769.45 988.201 1772.05 982.551 C 1775.27 975.584 1780.47 972.579 1787.42 970.08 z"/>
<path transform="translate(0,0)" fill="rgb(158,232,213)" d="M 1066.41 321.103 C 1071.22 320.814 1076.18 320.849 1080.64 322.891 A 22.4748 22.4748 0 0 1 1092.54 335.672 A 22.8878 22.8878 0 0 1 1091.49 353.614 C 1088.12 360.253 1082.69 363.563 1075.86 365.943 C 1071.08 366.474 1066.23 366.739 1061.68 364.871 A 22.1823 22.1823 0 0 1 1049.26 352.078 A 22.7076 22.7076 0 0 1 1049.95 334.649 C 1053.33 327.41 1059.04 323.57 1066.41 321.103 z"/>
<path transform="translate(0,0)" fill="rgb(158,232,213)" d="M 245.53 1662.09 C 250.253 1661.82 254.759 1661.8 259.14 1663.85 C 264.797 1666.5 269.065 1671.58 271.182 1677.4 A 24.9236 24.9236 0 0 1 270.046 1696.99 C 266.612 1703.72 261.235 1707.14 254.3 1709.55 C 249.181 1709.87 244.584 1709.94 239.789 1707.86 A 22.7582 22.7582 0 0 1 227.396 1694.92 A 24.3055 24.3055 0 0 1 228.197 1675.73 C 231.912 1668.13 237.814 1664.74 245.53 1662.09 z"/>
<path transform="translate(0,0)" fill="rgb(158,232,213)" d="M 1814.13 188.913 C 1826 190.986 1838.66 198.409 1849 204.408 C 1835.91 218.508 1821.51 228.299 1803.28 234.479 C 1792.3 236.78 1781.4 237.498 1770.2 237.657 C 1771.71 232.082 1773.57 226.679 1776 221.436 C 1783.98 204.291 1797 195.199 1814.13 188.913 z"/>
<path transform="translate(0,0)" fill="rgb(158,232,213)" d="M 1859.96 265.406 C 1862.12 265.269 1864.34 265.057 1866.5 265.148 C 1868.63 265.239 1870.22 265.391 1871.67 267.025 C 1871.23 269.127 1870.72 270.913 1869.78 272.863 C 1863.15 286.701 1848.2 303.26 1833.35 308.003 C 1821.72 311.718 1810.51 306.935 1800.43 301.399 C 1790.77 295.117 1783.64 287.283 1776.92 278.031 C 1806.07 278.646 1831.5 268.674 1859.96 265.406 z"/>
<path transform="translate(0,0)" fill="rgb(158,232,213)" d="M 1850.84 206.607 C 1855 209.089 1858.82 211.942 1862.03 215.605 C 1873.91 229.132 1875.37 246.12 1874.61 263.219 C 1847.07 261.485 1822.65 272.64 1795.76 275.15 C 1789.2 275.977 1782.84 275.906 1776.24 275.751 C 1770.22 264.051 1769.31 253.084 1770.06 240.248 A 217.785 217.785 0 0 0 1775.55 240.284 C 1806.99 240.08 1828.95 228.731 1850.84 206.607 z"/>
<path transform="translate(0,0)" fill="rgb(158,232,213)" d="M 1242.76 1484.37 C 1254.47 1484.63 1264.78 1486.43 1276.19 1489.12 C 1258.98 1512.11 1223.1 1525.82 1195.58 1530.37 C 1187.33 1531.73 1176.84 1530.63 1169.28 1534.19 L 1169.42 1535.5 C 1170.58 1535.91 1171.62 1536.28 1172.87 1536.37 C 1204.56 1538.65 1247.55 1519.89 1271.72 1500.24 C 1285.95 1509.15 1297.49 1522.34 1306.21 1536.61 A 90.6767 90.6767 0 0 1 1301.1 1547.03 C 1284.14 1576.92 1247.54 1596.92 1215.88 1607.5 C 1204.15 1611.43 1191.7 1613.68 1179.76 1616.98 L 1180.17 1617.82 C 1193.08 1620.47 1209.26 1613.53 1221.48 1609.27 C 1257.07 1596.86 1292.16 1574.5 1308.83 1539.72 C 1314.91 1552.55 1317.81 1568.17 1317.53 1582.35 C 1316.91 1613.7 1298.67 1639.58 1270.51 1652.87 C 1263.69 1656.08 1251.75 1659.36 1246.56 1664.42 L 1247.34 1666.38 C 1271.81 1657.82 1296.02 1645.47 1309.85 1622.54 C 1321.8 1602.72 1323.87 1578.15 1318.08 1555.99 C 1312.09 1533.1 1294.17 1509.57 1273.83 1497.62 L 1278.1 1489.69 C 1288.2 1493.37 1297.35 1499.01 1305.85 1505.54 C 1326.48 1521.4 1337.96 1542.63 1341.3 1568.5 C 1344.66 1594.63 1338.08 1620.84 1321.72 1641.62 C 1306.94 1660.4 1284.53 1674.25 1260.61 1677.08 C 1234.69 1680.14 1208.26 1671.52 1188.07 1655.22 C 1168.72 1639.6 1154.64 1614.21 1152.22 1589.38 C 1149.91 1565.63 1157.81 1539.1 1173.01 1520.67 C 1190.91 1498.97 1214.99 1487 1242.76 1484.37 z"/>
<path transform="translate(0,0)" fill="rgb(158,232,213)" d="M 217.559 98.4188 C 235.648 96.4166 255.645 99.0906 273.593 101.91 C 384.911 119.394 516.232 181.877 614.943 236.976 C 635.331 248.357 655.775 259.476 675.54 271.923 C 689.116 272.204 702.774 271.812 716.358 271.735 C 716.785 283.997 716.58 296.311 716.582 308.581 C 756.464 328.803 793.932 354.429 830.961 379.398 C 906.929 430.623 982.174 485.678 1051.9 545.173 C 1092.08 507.566 1129.5 466.394 1167.99 427.035 L 1240.72 351.708 C 1265.63 326.23 1291.03 301.275 1314.89 274.796 C 1362.43 273.925 1410.11 274.798 1457.66 274.85 L 1656.33 274.715 C 1633.16 304.45 1604.73 331.005 1579.13 358.709 A 9389.67 9389.67 0 0 1 1416.09 531.685 C 1432.77 528.18 1449.12 523.137 1465.79 519.528 C 1574.98 495.894 1710.51 470.479 1821.24 485.694 C 1846.21 489.125 1891.71 498.115 1907.44 519.967 C 1914.22 529.385 1915.16 540.958 1913 552.077 C 1896.57 636.873 1690.61 765.825 1619.53 812.962 C 1628.65 863.287 1622.89 914.487 1594.04 957.697 C 1560.73 1007.57 1519.56 1029.79 1462.11 1041.21 C 1480.77 1065.58 1502.33 1087.85 1522.64 1110.85 A 3247.99 3247.99 0 0 1 1589.53 1190.63 A 2846.19 2846.19 0 0 1 1743.01 1400.27 C 1765.15 1432.98 1787.76 1465.4 1808.77 1498.86 C 1854.6 1571.85 1905.06 1667.42 1923.54 1751.36 C 1933.62 1797.13 1938.8 1852.3 1912.13 1893.48 C 1897.88 1915.46 1873.5 1928.05 1848.45 1933.27 C 1723.04 1959.41 1502.26 1841.37 1398.41 1772.93 A 4023.01 4023.01 0 0 1 1318.31 1772.98 C 1303.88 1758.15 1290.2 1742.38 1276.26 1727.09 C 1265.13 1714.88 1253.37 1703.07 1243.06 1690.15 C 1257.91 1689.6 1270.85 1688.08 1284.92 1683.13 C 1305.19 1699.97 1329.35 1714.36 1351.3 1729.01 C 1427.84 1780.06 1506.47 1827.68 1590.42 1865.65 C 1659.77 1897.01 1789.17 1945.65 1864.44 1916.7 C 1885.52 1908.59 1901.08 1895.18 1910.25 1874.36 C 1936.87 1813.96 1909.49 1730.87 1886.6 1672.74 C 1872.29 1633.54 1851.42 1596.28 1831.63 1559.65 C 1825.12 1547.61 1818.98 1533.25 1810.29 1522.69 C 1816.47 1536.92 1823.69 1550.7 1830.08 1564.84 C 1847.54 1603.46 1863.14 1642.48 1874.02 1683.5 C 1886.03 1728.79 1891.18 1786.73 1866.49 1828.66 C 1850.43 1855.96 1824.64 1871.48 1794.44 1879.25 C 1689.03 1906.37 1519.55 1820.3 1431.74 1766.46 A 2403.35 2403.35 0 0 1 1366.32 1724.63 C 1343.36 1709.14 1320.93 1692.96 1297.1 1678.82 C 1324.12 1662.89 1344.52 1640.21 1352.37 1609.3 C 1359.57 1580.97 1355.69 1549.98 1340.55 1524.91 C 1325.97 1500.78 1302.11 1481.76 1274.52 1475.15 A 110.709 110.709 0 0 0 1189.66 1488.4 C 1166.64 1502.76 1150.25 1523.49 1144.16 1550.1 C 1110.3 1521.86 1075.13 1495.23 1041.67 1466.46 A 4418.34 4418.34 0 0 1 841.22 1279.53 L 792.06 1230.71 C 778.153 1216.82 763.714 1203.24 751.908 1187.47 L 738.047 1192.44 C 784.379 1242.23 833.641 1289.53 882.736 1336.57 C 965.561 1415.94 1050.49 1493.44 1141.88 1562.94 C 1141.1 1567.41 1140.77 1572.01 1140.28 1576.53 C 1127.61 1568.88 1115.93 1558.8 1104.35 1549.6 A 1476.97 1476.97 0 0 1 1037.94 1494.37 A 4080.47 4080.47 0 0 1 836.419 1309.01 C 821.278 1326.09 805.029 1342.11 789.164 1358.5 L 717.004 1433.02 L 716.973 1774.76 L 437.356 1774.78 C 436.184 1713.4 437.068 1651.82 437.041 1590.42 L 436.889 1256.14 C 366.726 1265.24 261.652 1275.45 194.036 1258.26 C 174.826 1253.38 152.891 1244.8 142.643 1226.58 C 135.943 1214.66 136.498 1201.04 140.42 1188.35 C 149.024 1160.52 171.345 1136.75 191.223 1116.16 C 252.253 1052.94 323.831 1002.22 398.506 956.487 C 411.276 948.666 423.673 940.311 436.956 933.362 A 4502.71 4502.71 0 0 0 436.551 863.385 C 424.662 850.84 414.882 835.259 404.588 821.338 C 382.128 790.964 360.288 760.758 339.201 729.434 C 321.07 702.501 302.426 675.99 284.739 648.748 C 231.238 566.346 182.435 480.307 146.318 388.777 C 127.304 340.591 111.419 290.864 107.09 238.976 C 104.129 203.496 107.35 162.047 131.647 133.88 C 153.762 108.243 185.139 100.877 217.559 98.4188 z"/>
<path transform="translate(0,0)" fill="rgb(39,45,57)" d="M 1587.98 832.912 C 1588.96 833.949 1588.67 833.385 1589.01 834.892 C 1590.3 840.641 1589.47 848.007 1589.3 853.957 C 1588.46 885.003 1581.48 913.388 1564.07 939.491 A 177.685 177.685 0 0 1 1453.18 1014.79 L 1452.99 1010.37 C 1453.41 1009.83 1453.67 1009.1 1454.26 1008.75 C 1457.46 1006.9 1463.51 1005.97 1467.18 1004.68 A 210.007 210.007 0 0 0 1492.65 993.778 C 1506.66 986.642 1519.82 977.874 1531.23 967.021 C 1558.07 941.493 1577.98 907.355 1581.67 870.113 C 1582.5 861.707 1581.03 844.576 1582.13 838.832 C 1582.69 835.881 1585.74 834.542 1587.98 832.912 z"/>
<path transform="translate(0,0)" fill="rgb(39,45,57)" d="M 716.414 321.258 C 744.255 334.453 770.652 353.46 796.372 370.382 A 2868.64 2868.64 0 0 1 960.902 487.539 C 988.727 508.954 1015.46 531.864 1043.38 553.078 C 1005.89 593.571 965.849 632.206 927.045 671.5 C 914.142 684.185 900.26 702.403 885.677 712.499 C 873.114 721.198 843.246 730.933 827.763 737.662 C 790.608 753.811 754.088 771.428 716.815 787.302 L 716.414 321.258 z"/>
<path transform="translate(0,0)" fill="rgb(39,45,57)" d="M 292.62 158.463 C 405.659 156.158 525.536 221.095 623.46 271.589 C 604.776 270.145 585.299 270.989 566.539 270.967 C 522.994 270.918 479.488 271.842 435.935 271.408 L 436.618 736.5 A 2505.01 2505.01 0 0 0 437.152 806.217 C 407.264 769.558 380.351 729.387 353.78 690.273 C 280.085 581.79 181.343 425.638 172.854 292.499 C 170.607 257.239 174.119 219.51 198.745 192.088 C 222.454 165.687 258.978 160.022 292.62 158.463 z"/>
<path transform="translate(0,0)" fill="rgb(39,45,57)" d="M 1294.97 985.926 C 1295.98 986.536 1295.56 986.185 1296.4 987.122 C 1302.62 994.033 1310.18 1000.97 1317.5 1006.71 C 1351.73 1033.55 1403.77 1049.86 1447.2 1044.37 C 1495.54 1095.91 1541.47 1150.91 1585.43 1206.2 C 1664.55 1305.73 1737.64 1408.44 1796.58 1521.33 C 1816.04 1558.61 1834.43 1596.06 1848.08 1635.97 C 1866.52 1689.88 1887.24 1764.08 1860.34 1818.07 C 1848.19 1842.45 1827.58 1857.1 1802.07 1865.35 C 1716.17 1893.15 1590.4 1838.65 1514.5 1799.97 C 1498.08 1791.92 1482.36 1781.85 1465.46 1774.92 C 1495.03 1774.72 1524.86 1776.75 1554.45 1777.51 C 1587.07 1778.36 1619.63 1778.03 1652.24 1779.36 C 1631.21 1749.7 1605.29 1722.08 1581.37 1694.69 L 1480.88 1579.59 L 1175.51 1235.36 L 1095.75 1144.74 C 1080.13 1127.14 1062.36 1109.64 1048.53 1090.69 C 1077.68 1081.24 1106.32 1068.45 1134.59 1056.63 A 7287.82 7287.82 0 0 0 1294.97 985.926 z"/>
<path transform="translate(0,0)" fill="rgb(158,232,213)" d="M 1652.48 1514.14 C 1656.35 1513.97 1660.36 1513.81 1664.09 1515.04 C 1669.86 1516.94 1674.64 1520.95 1677.19 1526.49 A 21.7671 21.7671 0 0 1 1677.42 1543.78 C 1674.12 1551.67 1668.3 1555.23 1660.68 1558.29 C 1656.17 1558.63 1652.35 1558.48 1648.13 1556.67 C 1642.44 1554.23 1637.82 1549.83 1635.58 1544 C 1633.36 1538.24 1633.58 1531.99 1636.36 1526.45 C 1639.9 1519.42 1645.35 1516.68 1652.48 1514.14 z"/>
<path transform="translate(0,0)" fill="rgb(39,45,57)" d="M 221.654 109.429 C 326.524 104.8 504.411 189.257 596.369 238.502 C 614.517 248.221 632.167 258.961 650.046 269.174 L 648.692 269.084 L 653.766 271.487 C 647.056 275.195 630.255 264.801 623.99 261.302 C 532.453 210.179 434.09 160.175 328.38 148.072 C 286.384 143.264 233.674 148.28 199.744 175.67 C 175.104 195.561 165.598 223.563 162.405 254.186 C 158.179 294.711 166.348 336.352 177.486 375.201 C 216.231 510.342 298.988 633.508 379.709 747.039 A 3675.53 3675.53 0 0 0 502.977 910.632 C 621.369 842.962 745.944 785.54 871.376 732.241 A 3703.03 3703.03 0 0 1 1308.7 573.865 C 1424.34 539.677 1542.29 510.352 1662.53 498.149 C 1717.46 492.573 1848.15 484.045 1892.09 521.587 C 1898.28 526.877 1902.2 533.701 1902.52 541.941 C 1903.51 567.64 1872.86 600.309 1856.81 618.48 C 1785.42 692.549 1696.73 751.062 1609.18 804.351 C 1590.36 815.804 1571.81 827.875 1552.66 838.751 A 3511.09 3511.09 0 0 1 1212.28 1009.33 A 4101.66 4101.66 0 0 1 1047.92 1078.94 A 2879.01 2879.01 0 0 1 466.802 1239.64 C 394.475 1251.24 265.526 1266.03 194.432 1246.04 C 179.787 1241.92 159.644 1234.5 152.234 1220.25 C 147.565 1211.27 148.621 1200.98 151.628 1191.65 C 171.286 1130.65 292.783 1040.15 346.119 1004.23 A 1439.26 1439.26 0 0 1 492.533 917.336 C 466.575 880.775 437.096 846.51 410.526 810.376 C 318.895 685.766 231.425 556.731 169.182 414.585 C 144.447 358.095 122.192 298.435 117.799 236.41 C 115.509 204.077 117.887 166.421 140.357 140.898 C 161.551 116.825 191.136 111.291 221.654 109.429 z"/>
<path transform="translate(0,0)" fill="rgb(158,232,213)" d="M 1712.58 507.426 C 1730.3 506.011 1749.16 506.5 1766.95 507.192 C 1797.38 508.374 1842.98 511.466 1864.47 535.749 C 1870.4 542.455 1872.66 550.886 1871.9 559.728 C 1869.04 592.855 1824.26 632.755 1799.8 653.998 C 1748.24 698.784 1692.85 737.794 1635.49 774.733 C 1623.33 782.562 1611.57 791.033 1599.26 798.614 C 1565.44 819.447 1530.42 838.508 1495.56 857.535 A 3324.38 3324.38 0 0 1 1212.21 996.25 A 3795.92 3795.92 0 0 1 935.486 1107.02 A 2827.68 2827.68 0 0 1 549.322 1212.76 C 466.217 1229.34 352.357 1247.45 268.577 1241.5 C 244.479 1239.79 210.133 1235.25 193.609 1215.24 C 186.603 1206.75 183.867 1196.12 185.036 1185.26 C 189.632 1142.59 259.512 1087.69 291.546 1061.84 C 357.887 1010.74 427.302 966.651 500.208 925.632 A 2616.67 2616.67 0 0 0 710.184 1165.09 L 723.467 1161.26 C 717.337 1156.03 711.923 1149.49 706.346 1143.65 L 674.514 1110.24 A 2755.7 2755.7 0 0 1 510.439 919.539 A 3818.57 3818.57 0 0 1 880.466 741.174 A 3599.91 3599.91 0 0 1 1325.79 581.475 C 1453.3 544.74 1579.61 515.405 1712.58 507.426 z"/>
<path transform="translate(0,0)" fill="rgb(39,45,57)" d="M 805.864 785.09 L 806.55 785.894 A 1813.38 1813.38 0 0 1 717.761 878.266 C 714.107 873.954 716.081 834.687 716.126 826.387 C 746.09 812.618 776.234 799.608 805.864 785.09 z"/>
<path transform="translate(0,0)" fill="rgb(39,45,57)" d="M 1423.7 692.26 C 1427.14 691.872 1430.46 691.708 1433.91 692.015 C 1481.35 696.236 1529.54 725.927 1559.44 762.415 C 1564.53 768.627 1580.49 790.662 1579.78 797.836 L 1577.9 798.936 C 1569.75 796.577 1561.62 776.703 1556.42 770.011 C 1551.53 763.703 1545.6 757.537 1539.94 751.881 C 1521.21 733.141 1500.29 719.107 1476.04 708.617 C 1464.04 747.408 1443.09 782.314 1413 809.676 C 1380.28 839.88 1338.19 862.647 1293.54 868.329 C 1287.78 869.062 1273.94 871.962 1269.52 868.566 L 1269.51 867.018 C 1270.03 866.427 1270.38 865.647 1271.06 865.247 C 1272.1 864.623 1295.53 861.684 1299.17 860.903 C 1319.67 856.51 1339.47 850.154 1358.3 840.865 C 1414.52 813.129 1450.84 764.488 1470.81 706.126 C 1457.61 701.485 1434.69 698.779 1423.7 692.26 z"/>
<path transform="translate(0,0)" fill="rgb(39,45,57)" d="M 435.87 976.995 C 438.588 981.26 436.961 1202.19 436.945 1219.21 C 377.608 1227.86 266.424 1243.28 213.094 1215.94 C 208.562 1213.17 204.142 1209.78 201.169 1205.31 C 196.4 1198.15 195.255 1189.5 197.241 1181.2 C 201.711 1162.52 218.784 1145.15 231.719 1131.69 C 290.962 1070.02 363.31 1021.47 435.87 976.995 z"/>
<path transform="translate(0,0)" fill="rgb(39,45,57)" d="M 1710.31 519.422 C 1745.76 517.721 1813.42 516.742 1844.42 534.262 C 1854.12 539.748 1858.55 545.872 1861.41 556.332 C 1858.75 568.216 1854.36 578.081 1847.48 588.165 C 1833.8 608.22 1814.74 625.121 1796.65 641.147 C 1737.78 693.291 1673.02 735.496 1607.91 779.068 A 161.623 161.623 0 0 0 1597.98 760.518 C 1568.93 712.95 1524.81 680.714 1470.56 667.858 C 1423.68 656.752 1373.57 666.709 1332.77 691.959 C 1290.84 717.903 1257.98 762.445 1247.1 810.605 C 1235.6 861.516 1244.97 912.179 1272.69 956.072 C 1247.52 967.173 1222.19 977.822 1197.26 989.46 C 1158.19 1007.68 1118.03 1023.58 1078.23 1040.08 C 1059.72 1047.75 1040.64 1054.91 1022.68 1063.79 C 1007.26 1044.65 989.414 1027.32 974.737 1007.64 C 1004.49 978.007 1032.49 946.155 1061.19 915.474 L 1213.88 752.611 L 1311.75 648.759 C 1333.97 625.366 1356.94 602.355 1377.58 577.534 C 1414.19 569.94 1450.2 559.45 1486.73 551.402 A 1359.83 1359.83 0 0 1 1710.31 519.422 z"/>
</svg>